<mxfile host="app.diagrams.net" agent="Mozilla/5.0 (Windows NT 10.0; Win64; x64) AppleWebKit/537.36 (KHTML, like Gecko) Chrome/135.0.0.0 Safari/537.36" version="26.2.13">
  <diagram name="Trang-1" id="pxBt92zMnoGV5-Ushyza">
    <mxGraphModel grid="1" page="1" gridSize="10" guides="1" tooltips="1" connect="1" arrows="1" fold="1" pageScale="1" pageWidth="827" pageHeight="1169" math="0" shadow="0">
      <root>
        <mxCell id="0" />
        <mxCell id="1" parent="0" />
        <mxCell id="fefveRdP2USgAxOPTpRl-1" value="" style="ellipse;whiteSpace=wrap;html=1;aspect=fixed;strokeColor=default;fillColor=#040404;" vertex="1" parent="1">
          <mxGeometry x="80" y="30" width="50" height="50" as="geometry" />
        </mxCell>
        <mxCell id="fefveRdP2USgAxOPTpRl-2" value="" style="endArrow=classic;html=1;rounded=0;exitX=0.5;exitY=1;exitDx=0;exitDy=0;" edge="1" parent="1" source="fefveRdP2USgAxOPTpRl-1" target="fefveRdP2USgAxOPTpRl-3">
          <mxGeometry width="50" height="50" relative="1" as="geometry">
            <mxPoint x="390" y="160" as="sourcePoint" />
            <mxPoint x="440" y="110" as="targetPoint" />
          </mxGeometry>
        </mxCell>
        <mxCell id="fefveRdP2USgAxOPTpRl-3" value="Chờ thao tác" style="rounded=1;whiteSpace=wrap;html=1;" vertex="1" parent="1">
          <mxGeometry x="45" y="170" width="120" height="60" as="geometry" />
        </mxCell>
        <mxCell id="fefveRdP2USgAxOPTpRl-12" style="edgeStyle=orthogonalEdgeStyle;rounded=0;orthogonalLoop=1;jettySize=auto;html=1;entryX=0.5;entryY=0;entryDx=0;entryDy=0;" edge="1" parent="1" source="fefveRdP2USgAxOPTpRl-4" target="fefveRdP2USgAxOPTpRl-5">
          <mxGeometry relative="1" as="geometry" />
        </mxCell>
        <mxCell id="fefveRdP2USgAxOPTpRl-15" style="edgeStyle=orthogonalEdgeStyle;rounded=0;orthogonalLoop=1;jettySize=auto;html=1;exitX=1;exitY=0.5;exitDx=0;exitDy=0;entryX=0;entryY=0.5;entryDx=0;entryDy=0;" edge="1" parent="1" source="fefveRdP2USgAxOPTpRl-4" target="fefveRdP2USgAxOPTpRl-9">
          <mxGeometry relative="1" as="geometry" />
        </mxCell>
        <mxCell id="fefveRdP2USgAxOPTpRl-4" value="Kiểm tra đăng nhập" style="rounded=1;whiteSpace=wrap;html=1;" vertex="1" parent="1">
          <mxGeometry x="230" y="270" width="120" height="60" as="geometry" />
        </mxCell>
        <mxCell id="fefveRdP2USgAxOPTpRl-13" style="edgeStyle=orthogonalEdgeStyle;rounded=0;orthogonalLoop=1;jettySize=auto;html=1;entryX=0.5;entryY=0;entryDx=0;entryDy=0;" edge="1" parent="1" source="fefveRdP2USgAxOPTpRl-5" target="fefveRdP2USgAxOPTpRl-7">
          <mxGeometry relative="1" as="geometry" />
        </mxCell>
        <mxCell id="fefveRdP2USgAxOPTpRl-5" value="Chờ người dùng nhập dữ liệu" style="rounded=1;whiteSpace=wrap;html=1;" vertex="1" parent="1">
          <mxGeometry x="230" y="400" width="120" height="60" as="geometry" />
        </mxCell>
        <mxCell id="fefveRdP2USgAxOPTpRl-14" style="edgeStyle=orthogonalEdgeStyle;rounded=0;orthogonalLoop=1;jettySize=auto;html=1;entryX=0.5;entryY=0;entryDx=0;entryDy=0;" edge="1" parent="1" source="fefveRdP2USgAxOPTpRl-7" target="fefveRdP2USgAxOPTpRl-8">
          <mxGeometry relative="1" as="geometry" />
        </mxCell>
        <mxCell id="fefveRdP2USgAxOPTpRl-7" value="Truy vấn cơ sở dữ liệu" style="rounded=1;whiteSpace=wrap;html=1;" vertex="1" parent="1">
          <mxGeometry x="230" y="530" width="120" height="60" as="geometry" />
        </mxCell>
        <mxCell id="fefveRdP2USgAxOPTpRl-8" value="hiển thị kết quả" style="rounded=1;whiteSpace=wrap;html=1;" vertex="1" parent="1">
          <mxGeometry x="230" y="660" width="120" height="60" as="geometry" />
        </mxCell>
        <mxCell id="fefveRdP2USgAxOPTpRl-28" style="edgeStyle=orthogonalEdgeStyle;rounded=0;orthogonalLoop=1;jettySize=auto;html=1;" edge="1" parent="1" source="fefveRdP2USgAxOPTpRl-9" target="fefveRdP2USgAxOPTpRl-26">
          <mxGeometry relative="1" as="geometry">
            <Array as="points">
              <mxPoint x="640" y="700" />
              <mxPoint x="640" y="700" />
            </Array>
          </mxGeometry>
        </mxCell>
        <mxCell id="fefveRdP2USgAxOPTpRl-9" value="Trạng thái lỗi" style="rounded=1;whiteSpace=wrap;html=1;" vertex="1" parent="1">
          <mxGeometry x="580" y="270" width="120" height="60" as="geometry" />
        </mxCell>
        <mxCell id="fefveRdP2USgAxOPTpRl-10" value="Trạng thái lỗi" style="rounded=1;whiteSpace=wrap;html=1;" vertex="1" parent="1">
          <mxGeometry x="470" y="450" width="120" height="60" as="geometry" />
        </mxCell>
        <mxCell id="fefveRdP2USgAxOPTpRl-11" value="" style="endArrow=classic;html=1;rounded=0;exitX=1;exitY=0.5;exitDx=0;exitDy=0;" edge="1" parent="1" source="fefveRdP2USgAxOPTpRl-3">
          <mxGeometry width="50" height="50" relative="1" as="geometry">
            <mxPoint x="390" y="410" as="sourcePoint" />
            <mxPoint x="290" y="270" as="targetPoint" />
          </mxGeometry>
        </mxCell>
        <mxCell id="fefveRdP2USgAxOPTpRl-16" style="edgeStyle=orthogonalEdgeStyle;rounded=0;orthogonalLoop=1;jettySize=auto;html=1;exitX=1;exitY=0.5;exitDx=0;exitDy=0;entryX=0.45;entryY=0.004;entryDx=0;entryDy=0;entryPerimeter=0;" edge="1" parent="1" source="fefveRdP2USgAxOPTpRl-5" target="fefveRdP2USgAxOPTpRl-10">
          <mxGeometry relative="1" as="geometry" />
        </mxCell>
        <mxCell id="fefveRdP2USgAxOPTpRl-17" value="" style="endArrow=none;html=1;rounded=0;exitX=1;exitY=0.5;exitDx=0;exitDy=0;entryX=0.5;entryY=1;entryDx=0;entryDy=0;" edge="1" parent="1" source="fefveRdP2USgAxOPTpRl-7" target="fefveRdP2USgAxOPTpRl-10">
          <mxGeometry width="50" height="50" relative="1" as="geometry">
            <mxPoint x="390" y="410" as="sourcePoint" />
            <mxPoint x="440" y="360" as="targetPoint" />
          </mxGeometry>
        </mxCell>
        <mxCell id="fefveRdP2USgAxOPTpRl-19" value="bắt đầu tìm kiếm" style="text;html=1;align=center;verticalAlign=middle;resizable=0;points=[];autosize=1;strokeColor=none;fillColor=none;" vertex="1" parent="1">
          <mxGeometry x="130" y="40" width="110" height="30" as="geometry" />
        </mxCell>
        <mxCell id="fefveRdP2USgAxOPTpRl-20" value="kiểm tra đăng nhập" style="text;html=1;align=center;verticalAlign=middle;resizable=0;points=[];autosize=1;strokeColor=none;fillColor=none;" vertex="1" parent="1">
          <mxGeometry x="200" y="190" width="130" height="30" as="geometry" />
        </mxCell>
        <mxCell id="fefveRdP2USgAxOPTpRl-21" value="thất bại" style="text;html=1;align=center;verticalAlign=middle;resizable=0;points=[];autosize=1;strokeColor=none;fillColor=none;" vertex="1" parent="1">
          <mxGeometry x="400" y="268" width="60" height="30" as="geometry" />
        </mxCell>
        <mxCell id="fefveRdP2USgAxOPTpRl-22" value="thành công" style="text;html=1;align=center;verticalAlign=middle;resizable=0;points=[];autosize=1;strokeColor=none;fillColor=none;" vertex="1" parent="1">
          <mxGeometry x="290" y="350" width="80" height="30" as="geometry" />
        </mxCell>
        <mxCell id="fefveRdP2USgAxOPTpRl-23" value="không hợp lệ" style="text;html=1;align=center;verticalAlign=middle;resizable=0;points=[];autosize=1;strokeColor=none;fillColor=none;" vertex="1" parent="1">
          <mxGeometry x="365" y="398" width="90" height="30" as="geometry" />
        </mxCell>
        <mxCell id="fefveRdP2USgAxOPTpRl-24" value="Hợp lệ" style="text;html=1;align=center;verticalAlign=middle;resizable=0;points=[];autosize=1;strokeColor=none;fillColor=none;" vertex="1" parent="1">
          <mxGeometry x="280" y="478" width="60" height="30" as="geometry" />
        </mxCell>
        <mxCell id="fefveRdP2USgAxOPTpRl-25" value="truy vẫn xong" style="text;html=1;align=center;verticalAlign=middle;resizable=0;points=[];autosize=1;strokeColor=none;fillColor=none;" vertex="1" parent="1">
          <mxGeometry x="280" y="610" width="100" height="30" as="geometry" />
        </mxCell>
        <mxCell id="fefveRdP2USgAxOPTpRl-26" value="" style="ellipse;whiteSpace=wrap;html=1;aspect=fixed;strokeColor=default;fillColor=#040404;" vertex="1" parent="1">
          <mxGeometry x="615" y="710" width="50" height="50" as="geometry" />
        </mxCell>
        <mxCell id="fefveRdP2USgAxOPTpRl-29" value="" style="endArrow=none;html=1;rounded=0;exitX=1;exitY=0.5;exitDx=0;exitDy=0;" edge="1" parent="1" source="fefveRdP2USgAxOPTpRl-8">
          <mxGeometry width="50" height="50" relative="1" as="geometry">
            <mxPoint x="390" y="530" as="sourcePoint" />
            <mxPoint x="640" y="690" as="targetPoint" />
          </mxGeometry>
        </mxCell>
      </root>
    </mxGraphModel>
  </diagram>
</mxfile>
